<svg viewBox="0 0 50 50" xmlns="http://www.w3.org/2000/svg" xmlns:xlink="http://www.w3.org/1999/xlink" width="50.000000" height="50.000000" fill="none">
	<rect id="производство " width="50.000000" height="50.000000" x="0.000000" y="0.000000" />
	<g id="Сочетание 34">
		<path id="Форма 8" d="M30.4116 31.5292L27.3877 31.0423C27.1252 30.0959 26.7488 29.1883 26.2642 28.3323L28.0587 25.8487C28.3076 25.5042 28.2696 25.0299 27.969 24.7294L25.2725 22.0327C24.9717 21.7318 24.4975 21.6941 24.1532 21.943L21.6696 23.7375C20.8136 23.2529 19.9058 22.8766 18.9597 22.6142L18.4725 19.59C18.4049 19.1704 18.0427 18.8619 17.6177 18.8619L13.8037 18.8619C13.3787 18.8619 13.0165 19.1703 12.9489 19.59L12.4618 22.614C11.5158 22.8765 10.6082 23.2527 9.75194 23.7375L7.26835 21.943C6.92394 21.6942 6.44963 21.732 6.14905 22.0325L3.4523 24.7292C3.15177 25.0299 3.11377 25.5042 3.36272 25.8487L5.15713 28.3322C4.67247 29.1885 4.29619 30.0961 4.03372 31.0423L1.00966 31.5292C0.59005 31.5968 0.281494 31.959 0.281494 32.384L0.281494 36.1981C0.281494 36.6232 0.589994 36.9853 1.00961 37.0529L4.03372 37.5399C4.29633 38.4861 4.67252 39.3937 5.15713 40.2499L3.36272 42.7334C3.11377 43.0779 3.15174 43.5522 3.4523 43.8528L6.14905 46.5495C6.44958 46.8501 6.92383 46.8879 7.26835 46.6391L9.75194 44.8445C10.6081 45.3291 11.5157 45.7054 12.4618 45.968L12.9489 48.9921C13.0165 49.4117 13.3787 49.7202 13.8037 49.7202L17.6177 49.7202C18.0427 49.7202 18.4049 49.4117 18.4725 48.9921L18.9596 45.9679C19.9058 45.7054 20.8134 45.3291 21.6693 44.8446L24.1531 46.6391C24.4976 46.888 24.972 46.8502 25.2725 46.5495L27.9692 43.8529C28.2698 43.5523 28.3077 43.078 28.0587 42.7335L26.2642 40.2499C26.7488 39.3939 27.125 38.4863 27.3877 37.5399L30.4118 37.0529C30.8314 36.9852 31.1399 36.6231 31.1399 36.1981L31.1399 32.384C31.1399 31.959 30.8313 31.5968 30.4116 31.5292ZM29.4082 35.4606L26.5495 35.921C26.2003 35.9773 25.9204 36.2402 25.8426 36.5854C25.5826 37.7383 25.1297 38.8307 24.4965 39.8321C24.3075 40.1312 24.3195 40.5152 24.5266 40.8019L26.2232 43.1499L24.5695 44.8035L22.2213 43.107C21.9346 42.8999 21.5506 42.8879 21.2516 43.077C20.25 43.7102 19.1579 44.1629 18.005 44.4227C17.6601 44.5006 17.397 44.7805 17.3407 45.1297L16.8802 47.9885L14.5412 47.9885L14.0808 45.1298C14.0245 44.7806 13.7615 44.5007 13.4164 44.4229C12.2638 44.163 11.1714 43.7102 10.1695 43.077C9.8705 42.8879 9.48652 42.8999 9.19989 43.107L6.85197 44.8036L5.19822 43.1498L6.89458 40.8019C7.10175 40.5152 7.11372 40.1313 6.92472 39.8322C6.2915 38.8304 5.83869 37.7379 5.57877 36.5854C5.50091 36.2402 5.22105 35.9773 4.87183 35.921L2.01316 35.4606L2.01316 33.1216L4.87183 32.6613C5.22111 32.605 5.50102 32.3419 5.57883 31.9968C5.83858 30.8443 6.29141 29.752 6.92477 28.7499C7.11377 28.4508 7.1018 28.067 6.89463 27.7802L5.19827 25.4323L6.85202 23.7785L9.19994 25.4751C9.48663 25.6823 9.87069 25.6942 10.1696 25.5052C11.1717 24.8717 12.264 24.4188 13.4164 24.1592C13.7615 24.0813 14.0245 23.8014 14.0808 23.4522L14.5413 20.5935L16.8803 20.5935L17.3407 23.4523C17.397 23.8015 17.6601 24.0815 18.0051 24.1592C19.1579 24.4191 20.2501 24.8719 21.2517 25.5051C21.5508 25.6942 21.9347 25.6822 22.2215 25.4751L24.5695 23.7785L26.2232 25.4323L24.5267 27.7803C24.3195 28.0671 24.3076 28.4511 24.4966 28.7501C25.1299 29.7516 25.5827 30.8439 25.8427 31.9968C25.9205 32.3419 26.2004 32.605 26.5496 32.6612L29.4083 33.1215L29.4083 35.4606L29.4082 35.4606Z" fill="rgb(255,255,255)" fill-rule="nonzero" />
		<path id="Форма 9" d="M15.7107 25.7895C11.0229 25.7895 7.20923 29.6032 7.20923 34.2909C7.20923 38.9787 11.0229 42.7924 15.7107 42.7924C20.3985 42.7924 24.2124 38.9787 24.2124 34.2909C24.2124 29.6032 20.3985 25.7895 15.7107 25.7895ZM15.7107 41.0607C11.9778 41.0607 8.94087 38.0238 8.94087 34.2909C8.94087 30.558 11.9778 27.5211 15.7107 27.5211C19.4437 27.5211 22.4807 30.558 22.4807 34.2909C22.4807 38.0238 19.4437 41.0607 15.7107 41.0607Z" fill="rgb(255,255,255)" fill-rule="nonzero" />
		<path id="Форма 10" d="M49.0853 16.1596L47.0154 14.7698C47.1343 13.9987 47.165 13.2197 47.1068 12.4425L49.2778 11.2183C49.648 11.0094 49.812 10.5628 49.6647 10.1641L48.552 7.15137C48.4047 6.75251 47.99 6.52012 47.5729 6.60164L45.1272 7.08226C44.6662 6.45389 44.1366 5.88184 43.5451 5.37306L44.2145 2.9715C44.3286 2.56203 44.1288 2.13045 43.7428 1.95264L40.826 0.609088C40.4399 0.43081 39.9818 0.55981 39.745 0.912755L38.355 2.98275C37.5855 2.86462 36.8054 2.83345 36.0279 2.89142L34.8036 0.720477C34.5946 0.350143 34.1482 0.186227 33.7493 0.333588L30.7366 1.44631C30.3377 1.59356 30.105 2.00845 30.187 2.42556L30.6677 4.87084C30.0393 5.33189 29.4671 5.86156 28.9583 6.45317L26.557 5.78362C26.1475 5.66995 25.7159 5.8695 25.538 6.25542L24.1944 9.17214C24.0165 9.55817 24.1453 10.0162 24.498 10.2532L26.5678 11.6431C26.449 12.4144 26.4184 13.1934 26.4766 13.9704L24.3057 15.1946C23.9355 15.4035 23.7716 15.8501 23.9189 16.2488L25.0316 19.2616C25.1788 19.6603 25.5942 19.8938 26.0108 19.8112L28.4561 19.3306C28.9168 19.9587 29.4463 20.5308 30.0384 21.0399L29.3688 23.4413C29.2548 23.8507 29.4545 24.2825 29.8406 24.4603L32.7574 25.8038C33.1436 25.9817 33.6015 25.853 33.8385 25.5L35.2285 23.4302C35.9978 23.5485 36.778 23.5795 37.5557 23.5215L38.78 25.6927C38.9371 25.9715 39.2294 26.1333 39.5342 26.1333C39.6342 26.1333 39.7357 26.1159 39.834 26.0795L42.847 24.9668C43.2458 24.8195 43.4786 24.4046 43.3966 23.9875L42.9159 21.542C43.5439 21.0812 44.116 20.5515 44.6252 19.9598L47.0266 20.6293C47.436 20.743 47.8677 20.5435 48.0456 20.1575L49.389 17.2407C49.5668 16.8547 49.4382 16.3966 49.0853 16.1596ZM46.7812 18.7633L44.5436 18.1394C44.2026 18.0447 43.8387 18.1664 43.6237 18.4472C43.0262 19.2275 42.3069 19.8933 41.4857 20.4262C41.1888 20.6188 41.039 20.9725 41.1073 21.3196L41.5552 23.598L39.926 24.1997L38.7855 22.1771C38.6307 21.9025 38.341 21.7366 38.0315 21.7366C37.9937 21.7366 37.9556 21.739 37.9173 21.7441C36.9527 21.8725 35.961 21.8333 35.0062 21.6299C34.6605 21.5561 34.3043 21.7003 34.1071 21.9941L32.812 23.9224L31.235 23.1961L31.8587 20.9585C31.9537 20.6177 31.8319 20.2534 31.5509 20.0384C30.7706 19.4411 30.1048 18.7218 29.5719 17.9005C29.3795 17.6037 29.0259 17.4541 28.6785 17.5222L26.4004 17.97L25.7987 16.3408L27.8212 15.2003C28.1293 15.0265 28.3007 14.6828 28.2541 14.3322C28.1253 13.3611 28.1637 12.3818 28.3683 11.4213C28.442 11.0752 28.2978 10.7192 28.0043 10.522L26.0758 9.22698L26.8023 7.64984L29.0398 8.2737C29.3805 8.36829 29.7449 8.24676 29.9599 7.96582C30.5566 7.18601 31.276 6.5202 32.098 5.98679C32.3948 5.79426 32.5445 5.44057 32.4762 5.09343L32.0283 2.81531L33.6575 2.21354L34.798 4.23604C34.9717 4.54418 35.3151 4.71582 35.6663 4.66906C36.6309 4.54104 37.6223 4.57993 38.5773 4.78331C38.9229 4.85687 39.2791 4.71279 39.4765 4.41915L40.7715 2.49048L42.3485 3.2169L41.7247 5.45476C41.6298 5.79562 41.7517 6.15995 42.0326 6.37484C42.8122 6.97154 43.478 7.69073 44.0113 8.51257C44.2039 8.80937 44.5576 8.95865 44.9045 8.8909L47.1831 8.44312L47.7848 10.0722L45.7621 11.2127C45.454 11.3865 45.2826 11.7302 45.3292 12.0808C45.4581 13.0522 45.4197 14.0316 45.2149 14.9917C45.141 15.3378 45.2852 15.6939 45.579 15.8911L47.5076 17.1861L46.7812 18.7633Z" fill="rgb(255,255,255)" fill-rule="nonzero" />
		<path id="Форма 11" d="M36.791 5.90881C35.9291 5.90881 35.079 6.06137 34.264 6.3624C30.4902 7.75606 28.5539 11.9602 29.9476 15.7341C31.0011 18.587 33.7517 20.5038 36.7923 20.504C36.7925 20.504 36.7925 20.504 36.7928 20.504C37.6543 20.504 38.5043 20.3515 39.3192 20.0505C43.0929 18.6568 45.0294 14.4527 43.6358 10.6789C42.582 7.82576 39.8313 5.90881 36.791 5.90881ZM38.7193 18.4261C38.0971 18.6559 37.4489 18.7724 36.7928 18.7724C36.7928 18.7724 36.7925 18.7724 36.7924 18.7724C34.4736 18.7723 32.3756 17.3102 31.5719 15.1343C30.509 12.256 31.9858 9.04962 34.864 7.98676C35.4861 7.7569 36.1344 7.64045 36.7909 7.64045C39.1098 7.64045 41.2076 9.10262 42.0114 11.2788C43.0742 14.1568 41.5973 17.3631 38.7193 18.4261Z" fill="rgb(255,255,255)" fill-rule="nonzero" />
	</g>
	<g id="Сочетание 35" />
	<g id="Сочетание 36" />
	<g id="Сочетание 37" />
	<g id="Сочетание 38" />
	<g id="Сочетание 39" />
	<g id="Сочетание 40" />
</svg>
