<svg viewBox="0 0 50 50" xmlns="http://www.w3.org/2000/svg" xmlns:xlink="http://www.w3.org/1999/xlink" width="50.000000" height="50.000000" fill="none">
	<rect id="размер 1" width="50.000000" height="50.000000" x="0.000000" y="0.000000" />
	<g id="Layer">
		<g id="Сочетание 41">
			<path id="Форма 12" d="M42.8224 42.7819L42.8227 42.7816C43.8115 41.7929 43.8115 40.1839 42.8227 39.1949C42.3438 38.7162 41.7066 38.452 41.0291 38.452C40.3519 38.452 39.7148 38.7162 39.2356 39.1954C38.2471 40.1839 38.2471 41.7929 39.2359 42.7817C40.2249 43.7703 41.8338 43.7703 42.8224 42.7819ZM40.0246 41.9929C39.7564 41.7247 39.6086 41.3679 39.6086 40.9883C39.6086 40.6089 39.7564 40.2519 40.0246 39.9837C40.2931 39.7155 40.6499 39.5676 41.0295 39.5676C41.4089 39.5676 41.7655 39.7154 42.034 39.9837C42.5878 40.5377 42.5878 41.4389 42.0337 41.9929C41.4798 42.5469 40.5787 42.5467 40.0246 41.9929Z" fill="rgb(255,255,255)" fill-rule="nonzero" />
			<path id="Форма 13" d="M47.2482 11.1871C47.2487 11.1864 47.2495 11.1859 47.25 11.1853C47.2513 11.1841 47.2523 11.1828 47.2536 11.1816L47.4065 11.0287L47.4026 11.0248C49.6758 8.58554 49.6259 4.7522 47.2497 2.37604C46.0732 1.19945 44.509 0.551453 42.8451 0.551453C41.2554 0.551453 39.7575 1.1442 38.6008 2.22312L38.5971 2.2194L38.444 2.37237C38.4428 2.37365 38.4415 2.37473 38.4403 2.37601C38.4397 2.37659 38.4392 2.37726 38.4386 2.37792L1.84362 38.9728L1.85787 38.987C1.65332 39.1189 1.50512 39.3356 1.46954 39.5956L0.266039 48.3862C0.2294 48.6542 0.320206 48.9236 0.511345 49.1149C0.674539 49.2779 0.894872 49.3679 1.12257 49.3679C1.16151 49.3679 1.20071 49.3652 1.2399 49.3599L10.0302 48.1561C10.2903 48.1206 10.507 47.9723 10.6389 47.7678L10.6531 47.782L47.2482 11.1871ZM42.8451 2.2804C44.0471 2.2804 45.1771 2.74851 46.027 3.59851C47.5727 5.14401 47.7569 7.54351 46.5797 9.29248L40.3326 3.04556C41.0689 2.5479 41.9366 2.2804 42.8451 2.2804ZM38.5971 4.66443L44.9614 11.0286L10.6531 45.3369L8.25879 42.9428L35.7983 15.4036L34.1497 13.7552L6.61051 41.2946L4.28871 38.9728L38.5971 4.66443ZM2.13343 47.4925L3.12454 40.2535L9.37218 46.5012L2.13343 47.4925Z" fill="rgb(255,255,255)" fill-rule="nonzero" />
			<path id="Форма 14" d="M14.0817 22.3466L15.6591 20.7691L3.03563 8.14553L8.18652 2.99451L10.6289 5.43706L8.85685 7.20881L10.2558 8.60767L12.0278 6.83603L13.4517 8.25987L11.6797 10.0318L13.0787 11.4305L14.8509 9.65884L16.2747 11.0829L13.6531 13.7038L15.0525 15.1028L17.6736 12.4816L19.4098 14.2177L17.6378 15.9899L19.0368 17.3887L20.8088 15.6167L20.81 15.618L22.3874 14.0405L8.97513 0.628366C8.53952 0.192644 7.83341 0.192644 7.3978 0.628366L0.669464 7.35678C0.233714 7.79242 0.233714 8.49864 0.669464 8.93425L14.0817 22.3466Z" fill="rgb(255,255,255)" fill-rule="nonzero" />
			<path id="Форма 15" d="M49.415 41.0636C49.3949 41.0433 49.374 41.024 49.3528 41.0056L35.3172 26.9703L31.1183 31.1691L32.5144 32.5652L35.1358 29.9439L47.0466 41.8545L41.8955 47.0054L28.5887 33.6987L27.0112 35.2764L41.1067 49.3716C41.5423 49.8074 42.2484 49.8074 42.6841 49.3716L49.4129 42.6434C49.4135 42.6425 49.4142 42.642 49.4151 42.6411C49.8508 42.2056 49.8508 41.4992 49.415 41.0636Z" fill="rgb(255,255,255)" fill-rule="nonzero" />
		</g>
	</g>
	<g id="Сочетание 42" />
	<g id="Сочетание 43" />
	<g id="Сочетание 44" />
	<g id="Сочетание 45" />
	<g id="Сочетание 46" />
	<g id="Сочетание 47" />
</svg>
