<svg viewBox="0 0 50 46.8081" xmlns="http://www.w3.org/2000/svg" xmlns:xlink="http://www.w3.org/1999/xlink" width="50.000000" height="46.808105" fill="none" customFrame="#000000">
	<g id="етикетка">
		<g id="_x32__21_">
			<g id="Сочетание 2">
				<path id="Форма 1" d="M25 44.2433L3.33276 34.2542C3.40776 34.2995 1.4156 33.3996 0 32.5902C0 33.798 0.303105 36.0121 1.42974 36.6089L22.6422 46.1448C24.5172 47.0292 25.325 47.0292 27.3563 46.1448L48.5688 36.6089C49.6172 36.1214 50 33.826 50 32.5902C48.6359 33.2729 46.7047 34.2464 46.6672 34.2542L25 44.2433ZM1.42974 26.6198L22.6422 36.1558C24.5172 37.0401 25.325 37.0401 27.3563 36.1558L48.5688 26.6198C49.6172 26.1323 50 23.8371 50 22.6011C48.6359 23.2839 46.7047 24.2573 46.6672 24.2652L25 34.2542L3.33276 24.2652C3.40776 24.3105 1.4156 23.4104 0 22.6011C0 23.8089 0.303105 26.023 1.42974 26.6198ZM1.42974 16.6308L22.6422 26.1667C24.5172 27.0511 25.325 27.0511 27.3563 26.1667L48.5688 16.6308C50.1313 15.9027 50.1828 12.8058 48.5688 11.9214L27.3563 0.721421C25.6906 -0.266077 24.5172 -0.214525 22.6422 0.721421L1.42974 11.9214C-0.184395 12.962 -0.235948 15.7464 1.42974 16.6308ZM25 2.62297L46.6672 14.2761L25 23.4073L3.33276 14.2761L25 2.62297Z" fill="rgb(255,255,255)" fill-rule="nonzero" />
			</g>
		</g>
	</g>
</svg>
