<svg viewBox="0 0 50 50" xmlns="http://www.w3.org/2000/svg" xmlns:xlink="http://www.w3.org/1999/xlink" width="50.000000" height="50.000000" fill="none">
	<rect id="сертифікат" width="50.000000" height="50.000000" x="0.000000" y="0.000000" />
	<g id="_17_quality">
		<path id="Форма 5" d="M31.5626 16.0703C31.4437 15.7137 31.1963 15.534 30.8204 15.5313L26.9376 15.5313L25.7423 11.8438C25.6245 11.4856 25.3771 11.3065 25.0001 11.3065C24.623 11.3065 24.3756 11.4856 24.2579 11.8438L23.0626 15.5313L19.1798 15.5313C18.8038 15.534 18.5564 15.7137 18.4376 16.0703C18.3179 16.4333 18.4143 16.725 18.7266 16.9453L21.8595 19.2266L20.6641 22.9141C20.5457 23.2739 20.6395 23.5656 20.9454 23.7891C21.2527 24.0063 21.56 24.0063 21.8673 23.7891L25.0001 21.5078L28.1329 23.7891C28.2718 23.8843 28.4255 23.9338 28.5938 23.9375C28.763 23.9362 28.9166 23.8867 29.0548 23.7891C29.3607 23.5656 29.4544 23.2739 29.336 22.9141L28.1407 19.2266L31.2735 16.9453C31.5859 16.725 31.6822 16.4333 31.5626 16.0703ZM26.7657 18.2969C26.4583 18.5188 26.3619 18.8105 26.4766 19.1719L27.1095 21.1094L25.461 19.9063C25.1537 19.6854 24.8464 19.6854 24.5391 19.9063L22.8907 21.1094L23.5235 19.1719C23.6382 18.8105 23.5419 18.5188 23.2345 18.2969L21.586 17.0938L23.6251 17.0938C24.0046 17.096 24.252 16.9163 24.3673 16.5547L25.0001 14.6172L25.6329 16.5547C25.7482 16.9163 25.9956 17.096 26.3751 17.0938L28.4141 17.0938L26.7657 18.2969Z" fill="rgb(255,255,255)" fill-rule="nonzero" />
		<path id="Форма 6" d="M24.9999 8.01562C23.6664 8.01525 22.3808 8.26351 21.1433 8.76039C19.9057 9.25728 18.8054 9.96696 17.8424 10.8894C16.8794 11.8119 16.123 12.8807 15.5734 14.0957C15.0238 15.3107 14.7205 16.5844 14.6635 17.9168C14.6065 19.2491 14.8 20.5441 15.2439 21.8016C15.6879 23.0591 16.3502 24.1885 17.231 25.1898C18.1118 26.1911 19.1475 26.9921 20.3381 27.5928C21.5287 28.1935 22.7884 28.5506 24.1171 28.6641C24.414 28.6875 24.703 28.7031 24.9999 28.7031C25.2655 28.7031 25.539 28.6875 25.8046 28.6641L25.8827 28.6641L25.8827 28.6563C27.211 28.5428 28.4702 28.1859 29.6603 27.5854C30.8505 26.9849 31.8858 26.1842 32.7662 25.1832C33.6466 24.1823 34.3087 23.0533 34.7524 21.7962C35.1962 20.5392 35.3896 19.2447 35.3326 17.9129C35.2756 16.581 34.9724 15.3078 34.423 14.0933C33.8735 12.8787 33.1175 11.8104 32.1548 10.8882C31.1921 9.96613 30.0922 9.25673 28.8551 8.76005C27.6181 8.26337 26.333 8.01523 24.9999 8.01562ZM32.664 22.6406C32.6588 22.6406 32.6562 22.6432 32.6562 22.6484C31.9466 23.9201 30.9797 24.9502 29.7554 25.7387C28.5312 26.5272 27.1934 26.9815 25.7421 27.1016L25.7343 27.1094L25.7265 27.1094C25.2366 27.1576 24.7471 27.155 24.2577 27.1016C23.6313 27.0482 23.0176 26.9289 22.4168 26.7436C21.8159 26.5584 21.2416 26.3114 20.6939 26.0028C20.1461 25.6941 19.6373 25.3308 19.1676 24.9128C18.6979 24.4949 18.278 24.0318 17.9078 23.5236C17.5376 23.0153 17.2256 22.4736 16.9718 21.8984C16.718 21.3231 16.5282 20.7275 16.4024 20.1114C16.2766 19.4954 16.2177 18.873 16.2256 18.2443C16.2336 17.6156 16.3082 16.995 16.4495 16.3823C16.5908 15.7696 16.7956 15.179 17.0638 14.6103C17.332 14.0416 17.6576 13.508 18.0405 13.0093C18.4234 12.5106 18.8549 12.0582 19.335 11.6522C19.8151 11.2463 20.3329 10.8959 20.8883 10.6012C21.4437 10.3064 22.024 10.0741 22.6293 9.90404C23.2347 9.73402 23.8511 9.63023 24.4788 9.59268C25.1064 9.55513 25.7308 9.58466 26.3521 9.68129C26.9734 9.77792 27.5773 9.93943 28.1639 10.1658C28.7505 10.3922 29.3063 10.6784 29.8314 11.0242C30.3565 11.37 30.8388 11.7677 31.2785 12.2172C31.7181 12.6667 32.105 13.1577 32.4391 13.6903C32.7732 14.223 33.047 14.785 33.2603 15.3764C33.4737 15.9679 33.6218 16.5752 33.7046 17.1985C33.7875 17.8218 33.8032 18.4467 33.7517 19.0733C33.7003 19.7 33.5829 20.314 33.3995 20.9154C33.2161 21.5168 32.9709 22.0919 32.664 22.6406L32.664 22.6406Z" fill="rgb(255,255,255)" fill-rule="nonzero" />
		<path id="Форма 7" d="M46 41.1953L43.0625 36.6406C40.9609 33.3985 38.862 30.1511 36.7656 26.8985C36.9297 26.836 37.1172 26.7656 37.3047 26.7031C38.1957 26.5247 38.891 26.0559 39.3906 25.2969C39.6698 24.4392 39.6047 23.6085 39.1953 22.8047C39.0097 22.4005 38.9133 21.976 38.9062 21.5313C39.1018 21.1512 39.3648 20.8257 39.6953 20.5547C40.4269 20.0007 40.854 19.2689 40.9765 18.3594C40.8557 17.4509 40.4286 16.7217 39.6953 16.1719C39.3662 15.8967 39.1032 15.5686 38.9062 15.1875C38.9133 14.7428 39.0097 14.3183 39.1953 13.9141C39.6045 13.113 39.6696 12.2849 39.3906 11.4297C38.8899 10.6724 38.1945 10.2036 37.3047 10.0235C36.8798 9.91598 36.4917 9.73108 36.1406 9.46877C35.9661 9.06756 35.8724 8.64829 35.8594 8.21096C35.8841 7.30543 35.5846 6.52418 34.9609 5.86721C34.1837 5.40967 33.3582 5.29248 32.4844 5.51565C32.0547 5.60434 31.625 5.60434 31.1953 5.51565C30.8647 5.23869 30.6016 4.90796 30.4062 4.52346C30.0323 3.68425 29.4151 3.10352 28.5547 2.78127C27.6644 2.70474 26.878 2.95474 26.1953 3.53127C25.8366 3.80465 25.4382 3.99476 25 4.10158C24.5618 3.99476 24.1634 3.80465 23.8047 3.53127C23.1245 2.95604 22.3407 2.70604 21.4531 2.78127C20.5886 3.10086 19.9688 3.68159 19.5937 4.52346C19.3982 4.90526 19.1378 5.23598 18.8125 5.51565C18.3802 5.6042 17.9479 5.6042 17.5156 5.51565C16.6442 5.29231 15.8213 5.4095 15.0469 5.86721C14.4154 6.52415 14.1134 7.308 14.1406 8.21877C14.1325 8.65585 14.0362 9.07252 13.8515 9.46877C13.5072 9.73182 13.1244 9.91411 12.7031 10.0156C11.8115 10.1959 11.1135 10.6647 10.6094 11.4219C10.3302 12.2796 10.3953 13.1103 10.8047 13.9141C10.9903 14.3183 11.0867 14.7428 11.0937 15.1875C10.8968 15.5686 10.6338 15.8967 10.3047 16.1719C9.57135 16.7217 9.14426 17.4509 9.02342 18.3594C9.14597 19.2689 9.57305 20.0007 10.3047 20.5547C10.6351 20.8257 10.8982 21.1512 11.0937 21.5313C11.0867 21.976 10.9903 22.4005 10.8047 22.8047C10.3955 23.6058 10.3304 24.4339 10.6094 25.2891C11.1069 26.0512 11.8022 26.5199 12.6953 26.6953C12.875 26.7656 13.0625 26.8281 13.2344 26.8985C11.1328 30.1485 9.03384 33.3959 6.93748 36.6406L3.99998 41.1953C3.80862 41.4836 3.81123 41.77 4.0078 42.0547C4.19854 42.3379 4.46156 42.4473 4.79686 42.3828L10.1328 41.3906L11.4297 46.6719C11.5142 47.003 11.7251 47.1957 12.0625 47.25C12.1037 47.2591 12.1453 47.2643 12.1875 47.2656C12.4729 47.2675 12.6916 47.1478 12.8437 46.9063L21.2656 33.8672C21.3281 33.8828 21.3828 33.9219 21.4453 33.9375C21.5737 33.9681 21.7039 33.9838 21.8359 33.9844C22.5671 33.9038 23.2233 33.6382 23.8047 33.1875C24.1634 32.9141 24.5618 32.724 25 32.6172C25.4382 32.724 25.8366 32.9141 26.1953 33.1875C26.8792 33.7693 27.6683 34.0193 28.5625 33.9375C28.625 33.9219 28.6797 33.8828 28.7344 33.8672L37.1562 46.9063C37.3083 47.1478 37.5271 47.2675 37.8125 47.2656C37.8546 47.2643 37.8963 47.2591 37.9375 47.25C38.2749 47.1957 38.4858 47.003 38.5703 46.6719L39.8672 41.3906L45.2031 42.3828C45.5376 42.4453 45.8006 42.3359 45.9922 42.0547C46.1887 41.77 46.1913 41.4836 46 41.1953ZM12.5156 44.5313L11.4765 40.3047C11.3615 39.8267 11.062 39.6314 10.5781 39.7188L6.29686 40.5156L8.24998 37.4922C10.2031 34.461 12.1614 31.4297 14.125 28.3985C14.1335 28.4344 14.1387 28.4709 14.1406 28.5078C14.1159 29.4134 14.4153 30.1946 15.039 30.8516C15.8163 31.3087 16.6418 31.4258 17.5156 31.2031C17.9453 31.1145 18.375 31.1145 18.8047 31.2031C19.1374 31.4785 19.4004 31.8092 19.5937 32.1953C19.7422 32.4219 19.8906 32.6485 20.0469 32.8672L12.5156 44.5313ZM28.4375 32.2578C28.3732 32.3307 28.2951 32.3828 28.2031 32.4141C27.9844 32.461 27.4062 32.1094 27.0312 31.8672C26.432 31.4019 25.7549 31.131 25 31.0547C24.2451 31.131 23.568 31.4019 22.9687 31.8672C22.5937 32.1094 22.0156 32.4688 21.8047 32.4219C21.7075 32.3847 21.6242 32.3274 21.5547 32.25C21.312 31.9785 21.1011 31.6842 20.9219 31.3672C20.5923 30.7099 20.1158 30.1865 19.4922 29.7969C19.1322 29.633 18.7546 29.5575 18.3594 29.5703C18.0193 29.5769 17.6808 29.603 17.3437 29.6485C16.8594 29.7031 16.2031 29.7813 16.0156 29.6328C15.8281 29.4844 15.75 28.8203 15.6953 28.336C15.6856 27.5898 15.4799 26.9023 15.0781 26.2735C15.0157 26.1952 14.9454 26.1249 14.8672 26.0625C14.8373 26.0372 14.8061 26.0138 14.7734 25.9922L14.7656 25.9844L14.7578 25.9844C14.2871 25.6401 13.7714 25.3875 13.2109 25.2266C12.75 25.0625 12.125 24.8438 12.0156 24.6094C11.9062 24.3906 12.125 23.7735 12.2812 23.3203C12.6007 22.6421 12.7127 21.9311 12.6172 21.1875C12.383 20.489 11.9793 19.9083 11.4062 19.4453C11.0625 19.1016 10.5859 18.625 10.5859 18.3594C10.5859 18.0938 11.0625 17.6172 11.4062 17.2735C11.9793 16.8105 12.383 16.2298 12.6172 15.5313C12.7127 14.7876 12.6007 14.0767 12.2812 13.3985C12.125 12.9453 11.9062 12.3281 12.0156 12.1016C12.125 11.875 12.7578 11.6563 13.2187 11.4922C13.9376 11.3232 14.5548 10.9742 15.0703 10.4453C15.4783 9.82119 15.6867 9.13629 15.6953 8.39065C15.75 7.90627 15.8203 7.25002 16.0156 7.09377C16.2109 6.93752 16.8594 7.01565 17.3437 7.07033C18.074 7.22591 18.7902 7.17643 19.4922 6.9219C20.118 6.53436 20.5946 6.01092 20.9219 5.35158C21.1797 4.92971 21.539 4.3594 21.7969 4.30471C22.0156 4.25002 22.5937 4.61721 22.9687 4.85158C23.568 5.31693 24.2451 5.58776 25 5.66408C25.7549 5.58776 26.432 5.31693 27.0312 4.85158C27.4062 4.61721 27.9765 4.25783 28.2031 4.30471C28.4609 4.3594 28.8203 4.92971 29.0781 5.35158C29.4054 6.01092 29.882 6.53436 30.5078 6.9219C31.2098 7.17643 31.9259 7.22591 32.6562 7.07033C33.1406 7.01565 33.7969 6.93752 33.9844 7.08596C34.1719 7.2344 34.25 7.89846 34.3047 8.38283C34.3144 9.12899 34.5201 9.81649 34.9219 10.4453C35.4444 10.9736 36.0668 11.3252 36.789 11.5C37.25 11.6563 37.875 11.875 37.9844 12.1094C38.0937 12.3281 37.875 12.9453 37.7187 13.3985C37.3993 14.0767 37.2873 14.7877 37.3828 15.5313C37.617 16.2298 38.0207 16.8105 38.5937 17.2735C38.9375 17.6172 39.414 18.0938 39.414 18.3594C39.414 18.625 38.9375 19.1016 38.5937 19.4453C38.0207 19.9083 37.617 20.489 37.3828 21.1875C37.2873 21.9311 37.3993 22.6421 37.7187 23.3203C37.875 23.7735 38.0937 24.3906 37.9844 24.6172C37.875 24.8438 37.2422 25.0703 36.789 25.2266C36.1986 25.3879 35.6595 25.6535 35.1719 26.0235C35.0851 26.101 35.0044 26.1843 34.9297 26.2735C34.5216 26.8976 34.3133 27.5825 34.3047 28.3281C34.25 28.8125 34.1797 29.4688 33.9844 29.625C33.789 29.7813 33.1406 29.7031 32.6562 29.6485C31.9256 29.4888 31.2095 29.5382 30.5078 29.7969C29.8842 30.1865 29.4076 30.7099 29.0781 31.3672C28.897 31.6874 28.6835 31.9843 28.4375 32.2578ZM39.4219 39.7188C38.938 39.6314 38.6385 39.8267 38.5234 40.3047L37.4844 44.5313L29.9531 32.8672C30.1094 32.6485 30.2578 32.4219 30.4062 32.1953C30.5996 31.8118 30.8601 31.4811 31.1875 31.2031C31.6198 31.1146 32.0521 31.1146 32.4844 31.2031C33.3558 31.4265 34.1787 31.3093 34.9531 30.8516C35.583 30.1971 35.885 29.4158 35.8594 28.5078C35.8607 28.4708 35.8659 28.4344 35.875 28.3985C37.8359 31.4297 39.7943 34.461 41.75 37.4922L43.7031 40.5156L39.4219 39.7188Z" fill="rgb(255,255,255)" fill-rule="nonzero" />
	</g>
</svg>
