<svg viewBox="0 0 32 32" xmlns="http://www.w3.org/2000/svg" xmlns:xlink="http://www.w3.org/1999/xlink" width="32.000000" height="32.000000" fill="none">
	<rect id="instagram_f_icon-icons.com_65485 1" width="32.000000" height="32.000000" x="0.000000" y="0.000000" />
	<g id="Сочетание 54">
		<path id="Форма 17" d="M31.9937 16.5082C31.9937 18.6832 31.95 20.8644 32.0062 23.0394C32.1 26.8894 29.6812 29.8644 26.6 31.1894C25.3625 31.7207 24.0625 32.0019 22.7188 32.0019C18.5125 32.0082 14.3 32.0644 10.0938 31.9832C6.925 31.9207 4.31875 30.5957 2.45 27.9832C1.46875 26.6082 1 25.0457 1 23.3519C1 18.8707 1 14.3957 1 9.91441C1 6.25816 2.78125 3.70191 5.94375 2.03941C7.31875 1.32066 8.8125 1.01441 10.3687 1.00816C14.45 1.00816 18.5375 0.983163 22.6187 1.02066C25.7875 1.04566 28.4312 2.25816 30.3813 4.80816C31.4688 6.23316 31.9937 7.87066 31.9937 9.67066C31.9937 11.9457 31.9937 14.2269 31.9937 16.5082ZM3.30625 16.5082C3.30625 18.8019 3.30625 21.0894 3.30625 23.3832C3.30625 24.4082 3.54375 25.3707 4.075 26.2394C5.46875 28.5207 7.575 29.6332 10.1875 29.6769C14.3813 29.7394 18.5813 29.7019 22.7812 29.6894C23.8125 29.6894 24.8125 29.4769 25.7437 29.0332C28.2812 27.8207 29.7 25.8894 29.6875 22.9894C29.6625 18.5519 29.6812 14.1144 29.6812 9.67691C29.6812 8.42066 29.325 7.27066 28.5812 6.25816C27.1437 4.31441 25.1562 3.35816 22.7812 3.33316C18.5937 3.28316 14.4062 3.31441 10.2187 3.32066C9.325 3.32066 8.4625 3.50191 7.625 3.81441C5.325 4.67066 3.1875 6.83941 3.2875 10.0332C3.3625 12.1957 3.30625 14.3519 3.30625 16.5082Z" fill="currentColor" fill-rule="nonzero" />
		<path id="Форма 18" d="M16.5313 23.1331C12.5 23.1331 9.25003 19.9206 9.24378 15.9206C9.23753 11.9831 12.5125 8.75807 16.5188 8.75807C20.5375 8.75182 23.8 11.9706 23.8063 15.9393C23.8063 19.9018 20.55 23.1268 16.5313 23.1331ZM16.5313 20.8206C19.275 20.8206 21.5 18.6268 21.4938 15.9268C21.4875 13.2518 19.2625 11.0643 16.5313 11.0643C13.7875 11.0643 11.55 13.2456 11.55 15.9393C11.5563 18.6393 13.7875 20.8268 16.5313 20.8206Z" fill="currentColor" fill-rule="nonzero" />
		<path id="Форма 19" d="M24.65 6.5708C25.4938 6.5708 26.1813 7.28955 26.1813 8.1708C26.175 9.05205 25.4813 9.76455 24.6375 9.7583C23.8063 9.75205 23.125 9.03955 23.125 8.17705C23.1188 7.2958 23.8063 6.5708 24.65 6.5708Z" fill="currentColor" fill-rule="nonzero" />
	</g>
</svg>
