<svg viewBox="0 0 32 23.4668" xmlns="http://www.w3.org/2000/svg" xmlns:xlink="http://www.w3.org/1999/xlink" width="32.000000" height="23.466797" fill="none" customFrame="#000000">
	<g id="Сочетание 52">
		<g id="youtube">
			<g id="Сочетание 53">
				<path id="Форма 16" d="M25.6 0L6.4 0C2.87148 0 0 2.87143 0 6.4L0 17.0667C0 20.5951 2.87148 23.4667 6.4 23.4667L25.6 23.4667C29.1285 23.4667 32 20.5951 32 17.0667L32 6.4C32 2.87143 29.1285 0 25.6 0ZM30.5778 17.0667C30.5778 19.8116 28.3449 22.0444 25.6 22.0444L6.4 22.0444C3.65511 22.0444 1.42222 19.8116 1.42222 17.0667L1.42222 6.4C1.42222 3.65511 3.65511 1.42222 6.4 1.42222L25.6 1.42222C28.3449 1.42222 30.5778 3.65511 30.5778 6.4L30.5778 17.0667ZM11.3778 17.75L21.7991 11.734L11.3778 5.7166L11.3778 17.75ZM12.8 8.17992L18.9547 11.7341L12.8 15.2867L12.8 8.17992Z" fill="currentColor" fill-rule="nonzero" />
			</g>
		</g>
	</g>
</svg>
