<svg viewBox="0 0 26.5713 24.02" xmlns="http://www.w3.org/2000/svg" xmlns:xlink="http://www.w3.org/1999/xlink" width="26.571289" height="24.020020" fill="none" customFrame="#000000">
	<path id="Форма 20" d="M25.9616 0.425529C25.7159 0.21332 25.433 0.0800238 25.1129 0.0256417C24.7929 -0.0287404 24.4818 0.00364411 24.1798 0.122795L1.11021 9.1859C0.934282 9.25502 0.773766 9.35014 0.62866 9.47126C0.483555 9.59239 0.361282 9.73332 0.261843 9.89406C0.162404 10.0548 0.0908846 10.2271 0.0472849 10.4111C0.00368515 10.595 -0.00976452 10.7811 0.00693583 10.9693C0.0236361 11.1576 0.0696321 11.3384 0.144924 11.5118C0.220216 11.6852 0.320952 11.8422 0.447132 11.983C0.573312 12.1237 0.718483 12.2409 0.882643 12.3346C1.0468 12.4283 1.22155 12.4937 1.4069 12.5308L7.46769 13.7428L7.46769 21.2671C7.46737 21.6211 7.56551 21.9454 7.76208 22.2399C7.95866 22.5343 8.22051 22.7493 8.54762 22.8848C8.87473 23.0203 9.21189 23.0534 9.55912 22.9842C9.90633 22.9149 10.205 22.755 10.4551 22.5044L13.8638 19.0957L18.962 23.5821C19.29 23.8735 19.6735 24.0194 20.1122 24.0199C20.2977 24.0197 20.4786 23.991 20.6551 23.9338C20.9494 23.8405 21.2008 23.68 21.4095 23.4524C21.6181 23.2249 21.7562 22.9604 21.8238 22.6592L26.5254 2.14257C26.5984 1.82623 26.5842 1.51385 26.483 1.20541C26.3817 0.896978 26.2079 0.637016 25.9616 0.425529ZM1.50108 10.8368C1.49272 10.7808 1.50344 10.7287 1.53323 10.6806C1.56302 10.6325 1.60483 10.5996 1.65867 10.5821L20.9621 2.99859L8.04386 12.3284L1.70103 11.0598C1.64493 11.0521 1.59798 11.0271 1.56018 10.9849C1.52238 10.9428 1.50268 10.8934 1.50108 10.8368ZM9.39445 21.4438C9.31571 21.5226 9.2249 21.5407 9.12201 21.4981C9.01912 21.4554 8.96768 21.3784 8.96769 21.2671L8.96769 14.7871L12.7355 18.1028L9.39445 21.4438ZM20.3617 22.3241C20.3518 22.367 20.332 22.4047 20.3023 22.4372C20.2725 22.4697 20.2367 22.4927 20.1947 22.5062C20.1528 22.5198 20.1103 22.522 20.0671 22.5131C20.024 22.5041 19.9859 22.4851 19.9528 22.456L9.41862 13.1859L25.0415 1.9027L20.3617 22.3241Z" fill="currentColor" fill-rule="nonzero" />
</svg>
