<svg viewBox="0 0 50 50" xmlns="http://www.w3.org/2000/svg" xmlns:xlink="http://www.w3.org/1999/xlink" width="50.000000" height="50.000000" fill="none">
	<rect id="рибоны 1" width="50.000000" height="50.000000" x="0.000000" y="0.000000" />
	<g id="Сочетание 18">
		<path id="Форма 4" d="M17.3827 30.3806L16.4372 29.8469L20.4964 25.6098L21.4337 26.1486L17.3827 30.3806ZM26.6439 25.2131L17.0703 35.186L18.0025 35.7128L27.5712 25.7506L26.6439 25.2131ZM48.7597 17.179L48.8219 17.1859L34.8792 46.7153L0 46.7939L12.4937 20.0601C9.30333 19.5603 7.67263 15.8023 7.62359 11.6727C7.67703 7.36587 9.43032 3.41923 12.9036 3.20612L44.6741 3.2124C44.6873 3.2124 44.6967 3.20612 44.7068 3.20612C48.187 3.41923 49.9346 7.36587 50 11.6759C49.9705 13.7158 49.5505 15.659 48.7597 17.179ZM44.7068 5.43278C44.1272 5.41958 43.3854 5.88163 42.7215 7.0264C42.0897 8.15293 41.644 9.81947 41.644 11.6796C41.644 13.5367 42.0897 15.2164 42.7215 16.3266C43.3791 17.4808 44.1272 17.9334 44.7068 17.9234C45.2833 17.9366 46.0351 17.4808 46.6958 16.3266C47.3308 15.2164 47.7765 13.5367 47.767 11.6796C47.7765 9.81947 47.3308 8.15293 46.6958 7.0264C46.0414 5.88163 45.2833 5.41958 44.7068 5.43278ZM12.9036 17.9164L41.1097 17.9164C40.029 16.3197 39.4526 14.0691 39.4199 11.6765C39.4526 9.28072 40.029 7.02326 41.1122 5.43278L12.9036 5.43278C12.3309 5.41958 11.5803 5.88163 10.9227 7.0264C10.2765 8.14916 9.8402 9.81633 9.8402 11.6765C9.8402 13.5335 10.2765 15.2133 10.9227 16.3234C11.5803 17.4739 12.3309 17.9296 12.9036 17.9164ZM44.8891 20.1085C44.8237 20.1167 44.7716 20.1431 44.7068 20.1462L14.787 20.1462L3.98625 44.5541L33.6521 44.495L44.8891 20.1085ZM21.533 36.1591L22.4741 36.6991L28.9523 29.9638L28.015 29.4301L21.533 36.1591Z" fill="rgb(255,255,255)" fill-rule="nonzero" />
	</g>
	<g id="Сочетание 19" />
	<g id="Сочетание 20" />
	<g id="Сочетание 21" />
	<g id="Сочетание 22" />
	<g id="Сочетание 23" />
	<g id="Сочетание 24" />
	<g id="Сочетание 25" />
	<g id="Сочетание 26" />
	<g id="Сочетание 27" />
	<g id="Сочетание 28" />
	<g id="Сочетание 29" />
	<g id="Сочетание 30" />
	<g id="Сочетание 31" />
	<g id="Сочетание 32" />
	<g id="Сочетание 33" />
</svg>
